<?xml version="1.0" encoding="UTF-8" standalone="no"?>
<!-- Created with Inkscape (http://www.inkscape.org/) -->

<svg
   width="210mm"
   height="297mm"
   viewBox="0 0 210 297"
   version="1.1"
   id="svg5"
   inkscape:export-filename="/home/samv/programs/4-color/examples/4-color-disks.png"
   inkscape:export-xdpi="96"
   inkscape:export-ydpi="96"
   inkscape:version="1.1 (c68e22c387, 2021-05-23)"
   sodipodi:docname="4-color-disks.svg"
   xmlns:inkscape="http://www.inkscape.org/namespaces/inkscape"
   xmlns:sodipodi="http://sodipodi.sourceforge.net/DTD/sodipodi-0.dtd"
   xmlns="http://www.w3.org/2000/svg"
   xmlns:svg="http://www.w3.org/2000/svg">
  <sodipodi:namedview
     id="namedview7"
     pagecolor="#ffffff"
     bordercolor="#666666"
     borderopacity="1.0"
     inkscape:pageshadow="2"
     inkscape:pageopacity="0.0"
     inkscape:pagecheckerboard="0"
     inkscape:document-units="mm"
     showgrid="false"
     showguides="true"
     inkscape:guide-bbox="true"
     inkscape:snap-grids="false"
     inkscape:snap-to-guides="true"
     inkscape:zoom="0.66012205"
     inkscape:cx="355.23734"
     inkscape:cy="561.25984"
     inkscape:window-width="1312"
     inkscape:window-height="991"
     inkscape:window-x="26"
     inkscape:window-y="23"
     inkscape:window-maximized="0"
     inkscape:current-layer="layer1">
    <sodipodi:guide
       position="40.88259,242.8907"
       orientation="1,0"
       id="guide1480" />
    <sodipodi:guide
       position="40.882589,242.89071"
       orientation="0,-1"
       id="guide3454" />
  </sodipodi:namedview>
  <defs
     id="defs2" />
  <g
     inkscape:label="Layer 1"
     inkscape:groupmode="layer"
     id="layer1">
    <circle
       style="fill:#0570b0;fill-opacity:1;stroke:none;stroke-width:0.2286;stroke-opacity:1"
       id="path846"
       cx="68.273544"
       cy="54.109299"
       r="18" />
    <path
       style="fill:#fed98e;fill-opacity:1;stroke:none;stroke-width:0.381;stroke-opacity:1"
       id="path1156"
       sodipodi:type="arc"
       sodipodi:cx="68.273544"
       sodipodi:cy="54.109299"
       sodipodi:rx="10.8"
       sodipodi:ry="10.8"
       sodipodi:start="0"
       sodipodi:end="2.0943951"
       sodipodi:arc-type="slice"
       d="m 79.073545,54.109299 a 10.8,10.8 0 0 1 -5.400001,9.353074 10.8,10.8 0 0 1 -10.8,0 l 5.4,-9.353074 z" />
    <path
       style="fill:#2ca25f;fill-opacity:1;stroke:none;stroke-width:1.44;stroke-opacity:1"
       id="path1625"
       sodipodi:type="arc"
       sodipodi:cx="68.273544"
       sodipodi:cy="54.109299"
       sodipodi:rx="10.8"
       sodipodi:ry="10.8"
       sodipodi:start="2.0943951"
       sodipodi:end="4.1887902"
       sodipodi:arc-type="slice"
       d="m 62.873544,63.462373 a 10.8,10.8 0 0 1 -5.4,-9.353074 10.8,10.8 0 0 1 5.4,-9.353075 l 5.4,9.353075 z" />
    <path
       style="fill:#e34a33;fill-opacity:1;stroke:none;stroke-width:1.44;stroke-opacity:1"
       id="path1625-3"
       sodipodi:type="arc"
       sodipodi:cx="68.273544"
       sodipodi:cy="-54.109299"
       sodipodi:rx="10.8"
       sodipodi:ry="10.8"
       sodipodi:start="0"
       sodipodi:end="2.0943951"
       sodipodi:arc-type="slice"
       transform="scale(1,-1)"
       d="m 79.073545,-54.109299 a 10.8,10.8 0 0 1 -5.400001,9.353075 10.8,10.8 0 0 1 -10.8,0 l 5.4,-9.353075 z" />
    <g
       id="g5225"
       transform="matrix(0.6,0,0,0.6,43.48754,21.643719)">
      <path
         style="fill:#fed98e;fill-opacity:1;stroke:none;stroke-width:0.381;stroke-opacity:1"
         id="path1156-7"
         sodipodi:type="arc"
         sodipodi:cx="109.78741"
         sodipodi:cy="54.109291"
         sodipodi:rx="30"
         sodipodi:ry="30"
         sodipodi:start="0"
         sodipodi:end="2.0943951"
         sodipodi:arc-type="slice"
         d="m 139.78741,54.109291 a 30,30 0 0 1 -15,25.980762 30,30 0 0 1 -30.000003,0 L 109.78741,54.109291 Z" />
      <path
         style="fill:#2ca25f;fill-opacity:1;stroke:none;stroke-width:1.44;stroke-opacity:1"
         id="path1625-5"
         sodipodi:type="arc"
         sodipodi:cx="109.78741"
         sodipodi:cy="54.109291"
         sodipodi:rx="30"
         sodipodi:ry="30"
         sodipodi:start="2.0943951"
         sodipodi:end="4.1887902"
         sodipodi:arc-type="slice"
         d="m 94.787407,80.090053 a 30,30 0 0 1 -15,-25.980762 30,30 0 0 1 15,-25.980762 l 15.000003,25.980762 z" />
      <path
         style="fill:#e34a33;fill-opacity:1;stroke:none;stroke-width:1.44;stroke-opacity:1"
         id="path1625-3-3"
         sodipodi:type="arc"
         sodipodi:cx="109.78741"
         sodipodi:cy="-54.109291"
         sodipodi:rx="30"
         sodipodi:ry="30"
         sodipodi:start="0"
         sodipodi:end="2.0943951"
         sodipodi:arc-type="slice"
         transform="scale(1,-1)"
         d="m 139.78741,-54.109291 a 30,30 0 0 1 -15,25.980762 30,30 0 0 1 -30.000003,0 l 15.000003,-25.980762 z" />
      <circle
         style="fill:#0570b0;fill-opacity:1;stroke:none;stroke-width:0.381;stroke-opacity:1"
         id="path846-6"
         cx="109.78741"
         cy="54.109291"
         r="18" />
    </g>
    <g
       id="g5231"
       transform="matrix(0.6,0,0,0.6,43.743983,21.643719)">
      <path
         style="fill:#2ca25f;fill-opacity:1;stroke:none;stroke-width:1.44;stroke-opacity:1"
         id="path1625-5-2"
         sodipodi:type="arc"
         sodipodi:cx="177.83739"
         sodipodi:cy="54.109291"
         sodipodi:rx="30"
         sodipodi:ry="30"
         sodipodi:start="0"
         sodipodi:end="3.1415927"
         sodipodi:arc-type="slice"
         d="m 207.83739,54.109291 a 30,30 0 0 1 -15,25.980762 30,30 0 0 1 -30,0 30,30 0 0 1 -15,-25.980762 h 30 z" />
      <path
         style="fill:#e34a33;fill-opacity:1;stroke:none;stroke-width:1.44;stroke-opacity:1"
         id="path1625-3-3-7"
         sodipodi:type="arc"
         sodipodi:cx="177.83739"
         sodipodi:cy="-54.109291"
         sodipodi:rx="30"
         sodipodi:ry="30"
         sodipodi:start="0"
         sodipodi:end="3.1415927"
         sodipodi:arc-type="slice"
         transform="scale(1,-1)"
         d="m 207.83739,-54.109291 a 30,30 0 0 1 -15,25.980762 30,30 0 0 1 -30,0 30,30 0 0 1 -15,-25.980762 h 30 z" />
      <path
         style="fill:#0570b0;fill-opacity:1;stroke:none;stroke-width:1.44;stroke-opacity:1"
         id="path1625-5-2-0"
         sodipodi:type="arc"
         sodipodi:cx="54.109291"
         sodipodi:cy="-177.83739"
         sodipodi:rx="18"
         sodipodi:ry="18"
         sodipodi:start="0"
         sodipodi:end="3.1415927"
         sodipodi:arc-type="slice"
         d="m 72.109291,-177.83739 a 18,18 0 0 1 -9,15.58846 18,18 0 0 1 -18,0 18,18 0 0 1 -9,-15.58846 h 18 z"
         transform="rotate(90)" />
      <path
         style="fill:#fed98e;fill-opacity:1;stroke:none;stroke-width:1.44;stroke-opacity:1"
         id="path1625-3-3-7-6"
         sodipodi:type="arc"
         sodipodi:cx="54.109291"
         sodipodi:cy="177.83739"
         sodipodi:rx="18"
         sodipodi:ry="18"
         sodipodi:start="0"
         sodipodi:end="3.1415927"
         sodipodi:arc-type="slice"
         transform="matrix(0,1,1,0,0,0)"
         d="m 72.109291,177.83739 a 18,18 0 0 1 -9,15.58845 18,18 0 0 1 -18,0 18,18 0 0 1 -9,-15.58845 h 18 z" />
    </g>
  </g>
</svg>
